<svg xmlns="http://www.w3.org/2000/svg"><symbol id="micropachycephalosaurus" viewBox="0 0 252 252"><path d="M130.5 148.8c-.3 0-.4.1-.4.5h-.1a.5.5 0 0 0-.5.5c0 .4.2.6.5.6s.4-.2.4-.6h.1c.3 0 .5-.1.5-.5s-.2-.5-.5-.5zm1.4-.8a1.8 1.8 0 0 0-.9.8h.3a2.1 2.1 0 0 0 1.1-.4 2.2 2.2 0 0 0 .9-.7h-.3a2.3 2.3 0 0 0-1.1.3zm3-2.6c-.3 0-.4.2-.4.6h-.1a.5.5 0 0 0-.5.5h-.1c-.3 0-.5.2-.5.6s.2.6.5.6.5-.2.5-.6h.1c.3 0 .4-.2.4-.6h.1c.3 0 .5-.1.5-.5s-.2-.6-.5-.6zm22.8-5.8a8.7 8.7 0 0 1-1.2 1.4 1.4 1.4 0 0 0 .8 1 2 2 0 0 0 1.1.2 2.3 2.3 0 0 0 1.4-.4l1-1.2a10.9 10.9 0 0 0 .8-1.5c.2-.5.3-1.1.5-1.1h-3.4c-.2 0-.5 1-1 1.6z"/><path d="M126 1a125 125 0 1 0 125 125A125 125 0 0 0 126 1zm93.7 74.2a5.7 5.7 0 0 1-1.5.3h-3.6l-5.2 1.2a16.5 16.5 0 0 0-3.5 1.6 10.3 10.3 0 0 0-2.5 2.1 15.8 15.8 0 0 0-1.7 2.9c-.5 1.1-1 2.4-1.5 3.8l-1.6 5-1.2 3.4-1.2 3.1c-.5 1-.9 2.1-1.5 3.1a33.7 33.7 0 0 1-1.7 3.2 39.4 39.4 0 0 1-2.6 4l-2.9 3.6-3.1 3.5c-1 1.2-2 2.4-3 3.8a9.4 9.4 0 0 0-1.4 2.6l-.9 2.5a9.8 9.8 0 0 1-1.3 2.2 6.6 6.6 0 0 1-2.5 1.5 4 4 0 0 1-1.3.6l-2 .7-2 .6-1.3.3a2.8 2.8 0 0 1 .1 2c-.2.4-.4.8-.8.9l-1.2.6a1.8 1.8 0 0 0-.9 1l-2.2 6.6a3.1 3.1 0 0 1-1 1.5 5.8 5.8 0 0 1-1.8.8 12.3 12.3 0 0 1-2 .2 10.3 10.3 0 0 1-1.8-.1h-1.9c-.3-.1-.4-.3-.4-.8s0-.3.1-.4a.2.2 0 0 1 .2-.2l.2-.3c.1-.1.1-.2.1-.4v-.2a26 26 0 0 0-3.4 1.6l-3.3 2.1-3.3 2.1a25.9 25.9 0 0 1-3.3 1.9l-.8.5-1.2.5a7.3 7.3 0 0 0-.9.8 1.4 1.4 0 0 0-.5 1c0 .1.1.2.1.4v.2l1.8 1.6 1.9 1.7a15.6 15.6 0 0 0 2 1.6 13.2 13.2 0 0 0 2 1.2l1.8.7 1.9.5 1.9.6a8.3 8.3 0 0 1 1.6.9 5.7 5.7 0 0 1 1.3 1.4l1.1 1.5a13.4 13.4 0 0 1 1.1 1.4 6.4 6.4 0 0 0 1.5 1.3l1.6.6 2.1.6a4.8 4.8 0 0 1 1.7 1 1.9 1.9 0 0 1 .8 1.7v.5l-5.5 1.1-1.1.4-1.2.2h-.5l-1.1-.6-1.7-1-1.7-1c-.5-.4-.9-.6-1-.8s-.1 0-.2-.2l-.3-.5-.4-.5c-.1-.2-.2-.3-.2-.4l-2.2-4.5-1.2-.4-1.7-.7-2.1-1-2.1-.9-1.8-.8-1.1-.6a12.8 12.8 0 0 1-2.7-1.6 13.3 13.3 0 0 1-2.6-2.1 10 10 0 0 1-2-2.6 8.7 8.7 0 0 1-1-3.1l-.6.2-.6.4-.8.6-1.7 1.2-2.1 1.4-2.1 1.3-1.7 1-.9.6-5.9 3.4a33.1 33.1 0 0 0-4.5 3.4 17 17 0 0 0-3.5 4.4c-.9 1.6-.7 3.8-2.4 6.5v1.5a8.8 8.8 0 0 0 1.2 4.4 6.5 6.5 0 0 0 2.1 2.5 7.7 7.7 0 0 0 2.5 1.4l2.6 1a5.6 5.6 0 0 1 1.9.9 5.3 5.3 0 0 1 .8 2h-13.2l-.2-.4c-.1-.2-.2-.1-.3-.2h-.5l-.6-.3a3.4 3.4 0 0 1-1.3-1.6 6.5 6.5 0 0 1-.4-2.1 9 9 0 0 1 .2-2.3c0-.7.2-1.4.2-2v-1.4a8.2 8.2 0 0 1 .3-1.8c.2-.8.3-1.6.6-2.6s.4-2 .7-3.1.6-2.1.8-3.1.5-1.9.7-2.6l.4-1.8.6-2 1-1.8a14.1 14.1 0 0 0 4.4-2.5 24.8 24.8 0 0 0 3.2-3.3l2.9-3.3a12.7 12.7 0 0 1 3.4-3.1l1.4-.7 2-.8 2.3-.9a10.3 10.3 0 0 0 2.1-1.1l1.6-1.3a3.1 3.1 0 0 0 .6-1.6c0-.4-.1-.8-.1-1.3a1.4 1.4 0 0 0-.6-1.1l-.7-.3-1.2-.5-1.2-.6-.7-.3a9.4 9.4 0 0 1-2-1.2l-2.6-1.9-2.5-1.5a3.4 3.4 0 0 0-1.7-.6h-7.8c-5.9 0-11.7-.1-17.4.1s-11.5.2-17.4.2q-6.5 0-12.6-.3A99 99 0 0 1 46 130a70.1 70.1 0 0 1-11.8-2.9 63.9 63.9 0 0 1-11.6-4.9l-1.4-.7-1.6-1a4.9 4.9 0 0 1-1.2-1.3 2.4 2.4 0 0 1-.6-1.5 5.9 5.9 0 0 1 2.1.4 11.7 11.7 0 0 1 2.4.9l2.1.9 1.5.6 4.6 1.7 5 1.4 5 1 4.8.3h26.1l2.5-.3 3.3-.6 3.6-.6a18.6 18.6 0 0 0 3.4-.6l2.6-.5 6.8-1.3 7.2-1.6c2.4-.6 4.8-1.3 7.1-2.1a38.5 38.5 0 0 0 6.5-2.8l3.8-1.7 3.7-1.6 3.9-1.3a25.9 25.9 0 0 1 4.2-.9h2.7l1.8-.2h1l1.8-.4 3.3-.7 4-.9 4-.9c1.2-.2 2.3-.9 3.3-1.1s1.5-.7 1.8-.7h6.5c2.6 0 5.2.5 7.8.7s5.1.5 7.7.5a9.4 9.4 0 0 0 4.9-1.2 20.5 20.5 0 0 0 4.5-3.4 37.5 37.5 0 0 0 3.8-4.9c1.2-1.9 2.2-3.7 3.2-5.6a52.5 52.5 0 0 0 2.5-5.5l1.8-4.7c.4-1.2.7-2.3 1.1-3.4s.6-2.2.9-3.1l1.2-2.6a8.1 8.1 0 0 1 1.8-1.9 6.8 6.8 0 0 1 2.6-2 12 12 0 0 1 3.7-.8h3c.8 1.6 1.7.9 2.9 1.3a36.8 36.8 0 0 1 3.5 1.5 17 17 0 0 1 3 1.8 2.9 2.9 0 0 1 1.2 2.1 2.6 2.6 0 0 1-.4 1.4 2.7 2.7 0 0 1-1.2.9z"/></symbol><symbol id="brachiosaurus" viewBox="0 0 252 252"><path d="M58.2 164.4a36.9 36.9 0 0 0-7.6.8v.2c0 .3.3.6.8.9a16 16 0 0 0 1.9 1.1l2.6.9 2.8.8 2.4.6 1.4.2h2.1a7.3 7.3 0 0 0 2.5-.4l2.3-.8a6.1 6.1 0 0 0 1.7-1.4 23.6 23.6 0 0 0-6.3-2.2 29.6 29.6 0 0 0-6.6-.7z"/><path d="M126 1a125 125 0 1 0 125 125A125 125 0 0 0 126 1zm81.5 69v.3a9.5 9.5 0 0 1-.1 1.4l-.3 2-.3 2.1c-.2.6-.2 1.1-.3 1.3l-.9 1.8-.6 1.9-.6 2a10.7 10.7 0 0 1-.7 1.9c-.5 1.1-1.1 2.1-1.6 3a21.1 21.1 0 0 0-1.6 3L180.9 118l-.3.5-.2.3-.3.3a1.1 1.1 0 0 0-.4.5l-1.7 2.2-2 2.8-2.1 3.2-2 3.2a23.8 23.8 0 0 0-1.3 2.9 6 6 0 0 0-.6 2.3c0 .3-.2.5-.2.7s.2.4.2.7c-.1 0-.2.2-.2.4s.1.4.2.4v10a4.4 4.4 0 0 1-.2 1c-.2.3-.2.7-.4 1.1s-.5.8-.6 1.2-.4.8-.4 1.1v1.6a.8.8 0 0 1 0 .5c-.2.2-.2.5-.4.7l-.7.8a1.1 1.1 0 0 1-.5.4v.4c0 .1.6.2.7.4s.9.4.9.4v2.8a21.4 21.4 0 0 1-.6 3.5c-.2 1.1-.6 2.3-.8 3.4l-.6 3.5a19.5 19.5 0 0 0-.3 3.4c0 2.1 0 4.2.2 6.2a59.7 59.7 0 0 0 1.1 6.1 29.2 29.2 0 0 0 2.1 5.6 22.2 22.2 0 0 0 3.4 5.2l-1.3.8-1.6.7-1.7.4h-1.9l-1-.2-1.2-.3-.9-.2-.8-.2-.7-.2-.6-.5a.9.9 0 0 1-.3-.7c.1-1.3.1-2.6.1-4l-.3-4.2c-.2-1.4-.3-2.8-.5-4.2s-.4-2.7-.5-4-.1-.3-.2-.6a1.6 1.6 0 0 0-.3-.6c.1-1.1.1-2.3.2-3.6s-.1-2.6-.2-4a26.3 26.3 0 0 0-.6-3.9 10.8 10.8 0 0 0-1.3-3.3 2.8 2.8 0 0 0-1.5 1.7 21.3 21.3 0 0 0-.7 2.7c-.3 1-.2 1.9-.5 2.8s-.9 1.8-.9 2.3v7.5c0 2.8-.2 5.5-.1 8.1a73.6 73.6 0 0 0 .6 8.1c0 .1.1.2.4.3l.8.6.8.7a.9.9 0 0 1 .3.6c0 .2-.3.5-.8.8l-1.8.9-2 .8-1.3.4h-.1l-4.7-2.6a.3.3 0 0 1-.2-.4v-.6a29.9 29.9 0 0 1 0-3 27.1 27.1 0 0 0 .1-2.9 23.4 23.4 0 0 0-.3-3.8l-.6-3.6-.6-3.7c-.1-1.3-.2-2.5-.2-3.8s0-2.3.1-3.3l.3-2.8.6-2.7c.2-1 .4-2 .6-3.2s0-.4 0-.7a2 2 0 0 1-.1-.7l-1.9.2-1.8.5-1.9.7-1.9.5-1.3.2h-2l-1.1-.2h-6.9a44.3 44.3 0 0 0-5.2-.2h-2.4a4 4 0 0 0-2.3.8v5.2c0 1.6-.1 3.3-.2 5s-.2 3.3-.2 5-.2 3.4-.2 5.1v5c0 .5.7 1.1 1.1 1.7l1.4 1.6 1.2 1.8a3.4 3.4 0 0 1 .5 1.7v.4a9 9 0 0 1-4 .4c.1.5 0 .7-.2.8h-2.7a7.8 7.8 0 0 1-2.2-.3 3.7 3.7 0 0 1-1.8-.8 2.2 2.2 0 0 1-.8-1.8c0-.4.1-.8.1-1.3a9.3 9.3 0 0 1 .4-1.3l.3-1.2a6.6 6.6 0 0 0 .1-1.4 23.4 23.4 0 0 0-.3-3.8c-.1-1.2-.4-2.4-.6-3.5s-.6-2.6-.8-3.8a18.3 18.3 0 0 1-.7-3.9h-.5c-.2 0-.3.8-.5.9a2.5 2.5 0 0 1-.4.7l-.3.5-1.5 2.3a16.4 16.4 0 0 0-1.4 2.2 12.8 12.8 0 0 0-1.1 2.4 7.5 7.5 0 0 0-.4 2.6 4.1 4.1 0 0 0 .3 1.6c.2.6.5 1 .7 1.5l.7 1.1.4.6a1 1 0 0 1-.4.7l-1 .5-1.3.3h-2.6l-1.7-.2a1.5 1.5 0 0 1-1-.4 1.4 1.4 0 0 1-.7-.8 9.1 9.1 0 0 1-.6-1.6 9.8 9.8 0 0 0-.5-1.6 4.5 4.5 0 0 1-.3-1.6 3 3 0 0 1 .5-1.5 8.9 8.9 0 0 1 .9-1.6l1-1.5a7 7 0 0 0 .8-1.4c.9-2 1.7-3.9 2.4-5.8s1.6-3.9 2.5-5.8a3 3 0 0 1 .4-.8 45708956252719.8 45708956252719.8 0 0 0 1-1.4 2.4 2.4 0 0 0 .2-.8c0-.4-.2-.6-.4-.6h-1.2l-8.9 2.4a2.7 2.7 0 0 1-1.3.5l-1.7.4-1.5.5a1.2 1.2 0 0 0-.7 1.1 2.9 2.9 0 0 0 .2.9l.7.6.8.6a1.3 1.3 0 0 1 .7.6l-.4.4-1.2-.8-1.4-.9-1.5-.3-1.5-.2a16.4 16.4 0 0 0-3.7.5l-3.9 1.1-4 1.1a15.1 15.1 0 0 1-4.2.5l-3.4-.3-4.8-1.1-5.3-1.8a27.8 27.8 0 0 1-4.9-2.2 18.5 18.5 0 0 1-3.7-2.6 4.4 4.4 0 0 1-1.4-2.9 4.9 4.9 0 0 1 1.1-3.3 9.2 9.2 0 0 1 2.7-1.6 13.6 13.6 0 0 1 3.5-.1 31.1 31.1 0 0 1 3.3.3h3.9a2.2 2.2 0 0 1 1.2-.2h2.3l2.5.3 2 .3 1.9.5 1.7.9 1.8.7a6.9 6.9 0 0 0 2 .3 8.7 8.7 0 0 0 3.9-1 45 45 0 0 0 4.1-2.5c1.3-1 2.6-2 3.8-3.1l3.2-2.7 1.8-1.2a11.8 11.8 0 0 0 1.9-1.1l1.7-1.2a7.9 7.9 0 0 0 1.4-1.7 39.1 39.1 0 0 0 2.6-4.4 39.9 39.9 0 0 1 2.7-4.4 5.3 5.3 0 0 1 1.3-1.3l1.5-.9 1.6-.9 1.6-.9 3.5-2.6c1.2-.9 2.3-1.9 3.4-2.9l3.3-2.9 3.4-2.8a20 20 0 0 1 3.7-2.2l3.9-1.8 2.4-1.3 2.5-1.3 2.5-1.1a11.1 11.1 0 0 1 2.6-.7l22-3.3a9.5 9.5 0 0 0 3.5-1.1 20.2 20.2 0 0 0 3.3-2.1l3.1-2.8 2.9-3.2 2.6-3.2 2.3-2.8 7.6-8.8.3-.3.5-.5.5-.5.3-.3 2-3.2.3-.2.3-.2.4-.2.2-.2.4-.4.4-.4a12.5 12.5 0 0 0 1.2-1.7l1.4-1.9 1.2-1.9a18.1 18.1 0 0 0 1-1.7 16.7 16.7 0 0 0 .8-2 17.2 17.2 0 0 0 .7-2.1c.2-.7.5-1.4.8-2.2s1-1.4 1-2.1v-6a5.3 5.3 0 0 0-1.1-3.1 12.4 12.4 0 0 0-2.6-2.5 10.6 10.6 0 0 0-3.3-1.8 10.3 10.3 0 0 0-3.2-.7 26.9 26.9 0 0 0-5.7.7 11.5 11.5 0 0 0-5 2.6 6.2 6.2 0 0 0-1.4 1.4l-1.6 1.8c-.6.7-1.2 1.3-1.7 2a10.7 10.7 0 0 1-1.9 1.8l-1.7 1.3a4.1 4.1 0 0 1-1.8.5 1.6 1.6 0 0 1-1.1-.5 1.4 1.4 0 0 1-.5-1.1V65a1.3 1.3 0 0 1 .1-.5c0-.2.1-.5.1-.7s.1-.5.2-.8v-.4a4.4 4.4 0 0 0-.2-1.6l-.6-1.3-.6-1.2a5 5 0 0 1-.2-1.2c.4 0 .7-.1.8-.3l.5-.6a1.6 1.6 0 0 1 .4-.7 1 1 0 0 1 .8-.6c0-.1.2-.1.5-.1h2.3a1.2 1.2 0 0 0 .9-.3 2.3 2.3 0 0 1 .7-.7h.4c0 .1.1.2.2.4s.1.4.2.4.1-.3.4-.3l.6-.4 1.1-.6 1.3-.8 1.3-.8 1.1-.7.6-.3 2-1.3 1.8-.6 1.9-.2h6.3l1.5.6 1.5.3 1.5.3a4.4 4.4 0 0 1 1.5.5 15.1 15.1 0 0 1 4.5 2.9 15.8 15.8 0 0 1 3.1 4.2 13.6 13.6 0 0 1 1.7 4.9 19.8 19.8 0 0 1 .5 5.4V70z"/></symbol><symbol id="velociraptor" viewBox="0 0 252 252"><path d="M126 1a125 125 0 1 0 125 125A125 125 0 0 0 126 1zm108.1 114.1h-7.2c-3 0-6-.1-9-.4l-9-1-8.9-.9a90.8 90.8 0 0 0-9.1-.5 146.2 146.2 0 0 0-16 1 81.2 81.2 0 0 0-15.5 3.6l-30 10.9a2.4 2.4 0 0 0-1.2 1.5 21.3 21.3 0 0 0-.8 2.7c-.3 1-.4 1.9-.6 2.8a7 7 0 0 1-.6 1.9 2.4 2.4 0 0 0 1.3 1.3l2.4 1.2 2.8 1.1a15.1 15.1 0 0 1 2.8 1.5 7 7 0 0 1 2 1.8 3.5 3.5 0 0 1 .8 2.4 1.3 1.3 0 0 1-.5 1.2l-1.1.9-1.6.7-1.6.8a4 4 0 0 0-1.2 1 2.5 2.5 0 0 0-.5 1.5 3.9 3.9 0 0 0 .8 2.5 5.8 5.8 0 0 0 1.9 1.5 17.1 17.1 0 0 0 2.3 1.3 8.7 8.7 0 0 1 2.1 1.7 13.2 13.2 0 0 1 2 3.4 26 26 0 0 1 1.3 3.6 25.3 25.3 0 0 1 .7 3.8c.2 1.3.1 2.6.3 3.9l1.3 1.3v7h.8l1 .2 1 .2.5.3a3.2 3.2 0 0 1 .1.8 3.4 3.4 0 0 1-.1.9l-.3 1.3a3.1 3.1 0 0 1-.7.9.8.8 0 0 1-.8.3h-5.1c-.2 0-.5-.5-1-.8l-1.5-.9-1.5-.7c-.5-.4-.9-.9-1.1-.9h-6.1a5 5 0 0 1 .6-2.9 4.9 4.9 0 0 1 1.7-1.5 6.8 6.8 0 0 1 2-.7l2.1-.3a3.4 3.4 0 0 0 1.6-.6 1.4 1.4 0 0 0 .7-1.3v-.4a.4.4 0 0 1-.1-.3l-.8-1.7c-.4-.8-.8-1.6-1.3-2.4a15.8 15.8 0 0 0-1.5-2.4 7.1 7.1 0 0 0-1.5-1.8l-1.3-.8-1.8-.9-1.7-1c-.5-.4-.9-.7-1-1.1s-.6-1.8-.9-2.9a29.9 29.9 0 0 0-1-3.2 9.2 9.2 0 0 0-1.7-2.5 3.9 3.9 0 0 0-2.9-1 23.2 23.2 0 0 0-5.9.7 31.1 31.1 0 0 0-5.6 2.2 28.5 28.5 0 0 0-4.9 3.4 27.4 27.4 0 0 0-3.9 4.5c-.1.2-.2.2-.4.2h-.1c-.1 0-.1-.1-.1-.2s-.2-.1-.2-.3-.1-.4-.2-.6a1.4 1.4 0 0 0-.2-.6.4.4 0 0 0-.1-.3H99a1.4 1.4 0 0 0-1 .5l-.9 1.1-.8 1.3a2.9 2.9 0 0 1-.8 1 5.2 5.2 0 0 1-.7-1.6v-1.6a13.6 13.6 0 0 1 .3-2.9l.9-2.7a15.2 15.2 0 0 0 .9-2.5 15.9 15.9 0 0 0 .4-2.8h-4.8c0-1.6.2-1.7.7-2.3a3.9 3.9 0 0 1 1.6-1.5 5.2 5.2 0 0 1 2-.9l2.1-.3a15.1 15.1 0 0 1 3 .2l2.9.4 2.8.5 2.9.2h2.3a2.5 2.5 0 0 0-1.7-1.3l-2.5-.5-2.6-.2c-.9 0-1.6.2-2.2-.2l-3.8-2.1h-.3a16.3 16.3 0 0 0-3.1-.1 10.8 10.8 0 0 1-3.1.2 7.3 7.3 0 0 1-3-.7l-2.6-1.3-2.5-1.4a6.3 6.3 0 0 0-2.9-.6v6l1.6-.2 1-.3.8-.5c.4-.2.4-.4.9-.6l.6-.2v2.7l2-.6c0 .1.2.2.2.5s.1.3.1.5a5.5 5.5 0 0 1-1.3 3.8 17.8 17.8 0 0 1-3.2 2.8 18.8 18.8 0 0 0-4.5-1.2l-4.7-.7V145l-1.7.5-2 1a8.6 8.6 0 0 0-1.9 1.1c-.5.5-.9.8-.9 1.2v6.8a9.3 9.3 0 0 0 2.9-.3l1.8-.6 1.2-.6 1.2-.2h.4l.2.7c.2.4.3.8.5 1.3s.3.8.4 1.2a8.4 8.4 0 0 1 .2 1 7.2 7.2 0 0 1-.4 1.9 9.9 9.9 0 0 1-1.1 1.7 5 5 0 0 1-1.5 1.4 4.1 4.1 0 0 1-1.8.5h-1l-3-.5-3.6-.7a12.5 12.5 0 0 1-3.1-1.2 2.5 2.5 0 0 1-1.5-2.1v-11.6l.9-.8a20.2 20.2 0 0 0 1.9-1.6l2.3-2.1a27.3 27.3 0 0 0 2.3-2.5 20.3 20.3 0 0 0 1.8-2.6 5 5 0 0 0 .7-2.5 4.1 4.1 0 0 0-1.1-2.8 15.5 15.5 0 0 0-2.8-2l-3.2-1.4-2.5-.8-1.3-9a16.8 16.8 0 0 0-.6-2.7 14.8 14.8 0 0 0-1-2.7 9.1 9.1 0 0 0-1.8-2.1 4.5 4.5 0 0 0-2.6-.8 12.8 12.8 0 0 0-3.6.4 17.5 17.5 0 0 0-3.1 1.5l-1.6 1-2.5 1.5-3 1.7-2.9 1.7-2.5 1.7c-.7.4-1.3 1.1-1.6 1.1h-1l-1.7-.3a13.8 13.8 0 0 1-2-.3 4.7 4.7 0 0 1-1.4-.8c-.4-.3-.3-.8-.3-1.3v-1.9c0-.6-.2-.9 0-.9h1.6c0-.1-.1-.2 0-.4s.1-.5.1-.8a2.9 2.9 0 0 0 .2-.9.4.4 0 0 0 0-.5l-.8-.8-.8-.5-.7-.6a2.1 2.1 0 0 1-.3-1.2 5 5 0 0 1 .2-1.2 4.1 4.1 0 0 1 .7-1.1c.3-.4.3-.7.6-.9l.8-.3v.7a4.7 4.7 0 0 0 .6 1.5c.1.5.6.7 1.2.7a1.2 1.2 0 0 0 1-.5 5.2 5.2 0 0 0 1-1.1 7.6 7.6 0 0 0 .6-1.6c.1-.4.2.3.2-1.3h-12c-.2 0-.5-.3-.8-.5l-1-.7a3.6 3.6 0 0 1-.9-.8 1.3 1.3 0 0 1-.4-1 4.5 4.5 0 0 1 1-3.1 8.1 8.1 0 0 1 2.6-1.8l3.1-1a13.6 13.6 0 0 0 2.8-.8l2.2-.9 3.3-1.5 3.3-1.6a8.8 8.8 0 0 1 2.1-1H52a7.9 7.9 0 0 1 3.8.9 12.6 12.6 0 0 1 3.1 2.5 28.5 28.5 0 0 1 2.5 3.3l2.2 3.2a14.2 14.2 0 0 0 2.3 2.5 3.3 3.3 0 0 0 2.4 1 .8.8 0 0 0 .8-.4.9.9 0 0 1 .8-.4 2.8 2.8 0 0 1 1.5.4l1.5.7 1.5.6a2.8 2.8 0 0 0 1.5.4l4.1-.2 4-.5 4-.5 4.1-.2a55.8 55.8 0 0 1 7.2.4 39.8 39.8 0 0 1 7.1 1.6c1.6.5 3.2 1.2 4.9 1.9l5 2.1a45.6 45.6 0 0 0 5.2 1.8 23.3 23.3 0 0 0 5.3.7h2.6l12.6-2.6c4.2-.9 8.4-1.6 12.6-2.3s8.5-1.1 12.7-1.5 8.6-.5 12.9-.5h8.7a32.1 32.1 0 0 1 5 .9l35.8 7.1h11.5c-.8 0-1.8 1-3.1 1.3a17.5 17.5 0 0 1-4 .2z"/></symbol></svg>